<?xml version="1.0" encoding="UTF-8" standalone="no"?>
<!DOCTYPE svg PUBLIC "-//W3C//DTD SVG 1.1//EN"
 "http://www.w3.org/Graphics/SVG/1.1/DTD/svg11.dtd">
<!-- Generated by graphviz version 2.40.1 (20161225.0304)
 -->
<!-- Title: ER Pages: 1 -->
<svg width="759pt" height="1089pt"
 viewBox="0.00 0.00 758.58 1088.77" xmlns="http://www.w3.org/2000/svg" xmlns:xlink="http://www.w3.org/1999/xlink">
<g id="graph0" class="graph" transform="scale(1 1) rotate(0) translate(4 1084.7685)">
<title>ER</title>
<polygon fill="#ffffff" stroke="transparent" points="-4,4 -4,-1084.7685 754.5815,-1084.7685 754.5815,4 -4,4"/>
<!-- beds -->
<g id="node1" class="node">
<title>beds</title>
<polygon fill="none" stroke="#000000" points="234.008,-366.5823 180.008,-366.5823 180.008,-330.5823 234.008,-330.5823 234.008,-366.5823"/>
<text text-anchor="middle" x="207.008" y="-344.8823" font-family="Times,serif" font-size="14.00" fill="#000000">beds</text>
</g>
<!-- b_id -->
<g id="node5" class="node">
<title>b_id</title>
<ellipse fill="none" stroke="#000000" cx="84.8516" cy="-238.7757" rx="27" ry="18"/>
<text text-anchor="start" x="77.8516" y="-236.0757" font-family="Times,serif" text-decoration="underline" font-size="14.00" fill="#000000">id</text>
</g>
<!-- beds&#45;&#45;b_id -->
<g id="edge1" class="edge">
<title>beds&#45;&#45;b_id</title>
<path fill="none" stroke="#000000" d="M186.8363,-330.45C162.8474,-308.8863 123.2776,-273.3169 101.1401,-253.4175"/>
</g>
<!-- b_name -->
<g id="node9" class="node">
<title>b_name</title>
<ellipse fill="none" stroke="#000000" cx="36.3968" cy="-334.0867" rx="36.2938" ry="18"/>
<text text-anchor="middle" x="36.3968" y="-330.3867" font-family="Times,serif" font-size="14.00" fill="#000000">name</text>
</g>
<!-- beds&#45;&#45;b_name -->
<g id="edge2" class="edge">
<title>beds&#45;&#45;b_name</title>
<path fill="none" stroke="#000000" d="M179.9741,-346.2855C150.9404,-343.8187 104.6559,-339.8862 72.5179,-337.1557"/>
</g>
<!-- b_area -->
<g id="node15" class="node">
<title>b_area</title>
<ellipse fill="none" stroke="#000000" cx="56.5461" cy="-434.8051" rx="31.3957" ry="18"/>
<text text-anchor="middle" x="56.5461" y="-431.1051" font-family="Times,serif" font-size="14.00" fill="#000000">area</text>
</g>
<!-- beds&#45;&#45;b_area -->
<g id="edge3" class="edge">
<title>beds&#45;&#45;b_area</title>
<path fill="none" stroke="#000000" d="M179.7605,-364.1966C150.798,-380.7937 105.5515,-406.7224 78.698,-422.1109"/>
</g>
<!-- seeds -->
<g id="node2" class="node">
<title>seeds</title>
<polygon fill="none" stroke="#000000" points="516.5825,-565.8796 459.5825,-565.8796 459.5825,-529.8796 516.5825,-529.8796 516.5825,-565.8796"/>
<text text-anchor="middle" x="488.0825" y="-544.1796" font-family="Times,serif" font-size="14.00" fill="#000000">seeds</text>
</g>
<!-- s_id -->
<g id="node6" class="node">
<title>s_id</title>
<ellipse fill="none" stroke="#000000" cx="358.4547" cy="-625.4785" rx="27" ry="18"/>
<text text-anchor="start" x="351.4547" y="-622.7785" font-family="Times,serif" text-decoration="underline" font-size="14.00" fill="#000000">id</text>
</g>
<!-- seeds&#45;&#45;s_id -->
<g id="edge4" class="edge">
<title>seeds&#45;&#45;s_id</title>
<path fill="none" stroke="#000000" d="M459.3139,-565.1013C434.8488,-579.7468 400.3369,-600.4066 378.6912,-613.3643"/>
</g>
<!-- s_name -->
<g id="node10" class="node">
<title>s_name</title>
<ellipse fill="none" stroke="#000000" cx="675.9933" cy="-513.7292" rx="36.2938" ry="18"/>
<text text-anchor="middle" x="675.9933" y="-510.0292" font-family="Times,serif" font-size="14.00" fill="#000000">name</text>
</g>
<!-- seeds&#45;&#45;s_name -->
<g id="edge5" class="edge">
<title>seeds&#45;&#45;s_name</title>
<path fill="none" stroke="#000000" d="M516.6221,-542.6929C550.1954,-536.5914 605.8919,-526.4692 641.758,-519.951"/>
</g>
<!-- s_sunlight -->
<g id="node14" class="node">
<title>s_sunlight</title>
<ellipse fill="none" stroke="#000000" cx="665.9535" cy="-599.1907" rx="48.9926" ry="18"/>
<text text-anchor="middle" x="665.9535" y="-595.4907" font-family="Times,serif" font-size="14.00" fill="#000000">sunlight</text>
</g>
<!-- seeds&#45;&#45;s_sunlight -->
<g id="edge7" class="edge">
<title>seeds&#45;&#45;s_sunlight</title>
<path fill="none" stroke="#000000" d="M516.6605,-556.1236C546.7107,-564.7923 594.1679,-578.4825 627.4916,-588.0955"/>
</g>
<!-- s_area -->
<g id="node16" class="node">
<title>s_area</title>
<ellipse fill="none" stroke="#000000" cx="598.622" cy="-478.4007" rx="31.3957" ry="18"/>
<text text-anchor="middle" x="598.622" y="-474.7007" font-family="Times,serif" font-size="14.00" fill="#000000">area</text>
</g>
<!-- seeds&#45;&#45;s_area -->
<g id="edge8" class="edge">
<title>seeds&#45;&#45;s_area</title>
<path fill="none" stroke="#000000" d="M516.8369,-529.8062C535.7718,-517.9048 560.1482,-502.5832 577.3457,-491.7738"/>
</g>
<!-- s_water -->
<g id="node20" class="node">
<title>s_water</title>
<ellipse fill="none" stroke="#000000" cx="419.8863" cy="-671.3154" rx="37.8943" ry="18"/>
<text text-anchor="middle" x="419.8863" y="-667.6154" font-family="Times,serif" font-size="14.00" fill="#000000">water</text>
</g>
<!-- seeds&#45;&#45;s_water -->
<g id="edge9" class="edge">
<title>seeds&#45;&#45;s_water</title>
<path fill="none" stroke="#000000" d="M478.0199,-566.093C464.9781,-589.6988 442.3915,-630.5807 429.5485,-653.8266"/>
</g>
<!-- do_best -->
<g id="node23" class="node">
<title>do_best</title>
<ellipse fill="none" stroke="#000000" cx="584.9834" cy="-643.2226" rx="46.5926" ry="18"/>
<text text-anchor="middle" x="584.9834" y="-639.5226" font-family="Times,serif" font-size="14.00" fill="#000000">do_best</text>
</g>
<!-- seeds&#45;&#45;do_best -->
<g id="edge6" class="edge">
<title>seeds&#45;&#45;do_best</title>
<path fill="none" stroke="#000000" d="M506.766,-566.2627C524.3649,-583.5787 550.5189,-609.3121 567.6595,-626.1772"/>
</g>
<!-- month -->
<g id="node3" class="node">
<title>month</title>
<polygon fill="none" stroke="#000000" points="520.8436,-209.088 458.8436,-209.088 458.8436,-173.088 520.8436,-173.088 520.8436,-209.088"/>
<text text-anchor="middle" x="489.8436" y="-187.388" font-family="Times,serif" font-size="14.00" fill="#000000">month</text>
</g>
<!-- m_id -->
<g id="node7" class="node">
<title>m_id</title>
<ellipse fill="none" stroke="#000000" cx="581.9096" cy="-49.334" rx="27" ry="18"/>
<text text-anchor="start" x="574.9096" y="-46.634" font-family="Times,serif" text-decoration="underline" font-size="14.00" fill="#000000">id</text>
</g>
<!-- month&#45;&#45;m_id -->
<g id="edge10" class="edge">
<title>month&#45;&#45;m_id</title>
<path fill="none" stroke="#000000" d="M501.6911,-172.8464C519.6604,-145.1791 553.5511,-92.9976 570.9677,-66.1813"/>
</g>
<!-- m_name -->
<g id="node11" class="node">
<title>m_name</title>
<ellipse fill="none" stroke="#000000" cx="652.0372" cy="-112.0896" rx="36.2938" ry="18"/>
<text text-anchor="middle" x="652.0372" y="-108.3896" font-family="Times,serif" font-size="14.00" fill="#000000">name</text>
</g>
<!-- month&#45;&#45;m_name -->
<g id="edge11" class="edge">
<title>month&#45;&#45;m_name</title>
<path fill="none" stroke="#000000" d="M521.1161,-175.8564C551.586,-161.0157 597.3767,-138.7127 625.9443,-124.7985"/>
</g>
<!-- m_avg_low -->
<g id="node17" class="node">
<title>m_avg_low</title>
<ellipse fill="none" stroke="#000000" cx="660.2525" cy="-197.0802" rx="48.1917" ry="18"/>
<text text-anchor="middle" x="660.2525" y="-193.3802" font-family="Times,serif" font-size="14.00" fill="#000000">avg_low</text>
</g>
<!-- month&#45;&#45;m_avg_low -->
<g id="edge13" class="edge">
<title>month&#45;&#45;m_avg_low</title>
<path fill="none" stroke="#000000" d="M521.0992,-192.1871C546.5618,-193.0824 582.944,-194.3618 612.1212,-195.3877"/>
</g>
<!-- m_avg_high -->
<g id="node18" class="node">
<title>m_avg_high</title>
<ellipse fill="none" stroke="#000000" cx="398.163" cy="-62.0044" rx="52.7911" ry="18"/>
<text text-anchor="middle" x="398.163" y="-58.3044" font-family="Times,serif" font-size="14.00" fill="#000000">avg_high</text>
</g>
<!-- month&#45;&#45;m_avg_high -->
<g id="edge12" class="edge">
<title>month&#45;&#45;m_avg_high</title>
<path fill="none" stroke="#000000" d="M476.9024,-172.8673C459.3306,-148.1267 428.1273,-104.1933 410.7441,-79.7181"/>
</g>
<!-- m_water -->
<g id="node19" class="node">
<title>m_water</title>
<ellipse fill="none" stroke="#000000" cx="495.4503" cy="-18" rx="37.8943" ry="18"/>
<text text-anchor="middle" x="495.4503" y="-14.3" font-family="Times,serif" font-size="14.00" fill="#000000">water</text>
</g>
<!-- month&#45;&#45;m_water -->
<g id="edge14" class="edge">
<title>month&#45;&#45;m_water</title>
<path fill="none" stroke="#000000" d="M490.433,-172.8917C491.5098,-139.6488 493.7831,-69.467 494.8603,-36.2122"/>
</g>
<!-- family -->
<g id="node4" class="node">
<title>family</title>
<polygon fill="none" stroke="#000000" points="585.9767,-930.4513 524.9767,-930.4513 524.9767,-894.4513 585.9767,-894.4513 585.9767,-930.4513"/>
<text text-anchor="middle" x="555.4767" y="-908.7513" font-family="Times,serif" font-size="14.00" fill="#000000">family</text>
</g>
<!-- f_id -->
<g id="node8" class="node">
<title>f_id</title>
<ellipse fill="none" stroke="#000000" cx="723.5815" cy="-970.3204" rx="27" ry="18"/>
<text text-anchor="start" x="716.5815" y="-967.6204" font-family="Times,serif" text-decoration="underline" font-size="14.00" fill="#000000">id</text>
</g>
<!-- family&#45;&#45;f_id -->
<g id="edge15" class="edge">
<title>family&#45;&#45;f_id</title>
<path fill="none" stroke="#000000" d="M586.3097,-923.0654C618.9161,-934.2899 669.6744,-951.7632 699.4739,-962.0215"/>
</g>
<!-- f_name -->
<g id="node12" class="node">
<title>f_name</title>
<ellipse fill="none" stroke="#000000" cx="426.4538" cy="-1033.3928" rx="36.2938" ry="18"/>
<text text-anchor="middle" x="426.4538" y="-1029.6928" font-family="Times,serif" font-size="14.00" fill="#000000">name</text>
</g>
<!-- family&#45;&#45;f_name -->
<g id="edge16" class="edge">
<title>family&#45;&#45;f_name</title>
<path fill="none" stroke="#000000" d="M536.1607,-930.5575C511.1342,-954.0163 467.8714,-994.5694 443.8314,-1017.1037"/>
</g>
<!-- f_alias -->
<g id="node21" class="node">
<title>f_alias</title>
<ellipse fill="none" stroke="#000000" cx="586.2229" cy="-1062.7685" rx="32.4942" ry="18"/>
<text text-anchor="middle" x="586.2229" y="-1059.0685" font-family="Times,serif" font-size="14.00" fill="#000000">alias</text>
</g>
<!-- family&#45;&#45;f_alias -->
<g id="edge17" class="edge">
<title>family&#45;&#45;f_alias</title>
<path fill="none" stroke="#000000" d="M559.1854,-930.5831C565.0949,-959.4747 576.5832,-1015.6404 582.501,-1044.5725"/>
</g>
<!-- b_sunlight -->
<g id="node13" class="node">
<title>b_sunlight</title>
<ellipse fill="none" stroke="#000000" cx="198.7758" cy="-42.9373" rx="48.9926" ry="18"/>
<text text-anchor="middle" x="198.7758" y="-39.2373" font-family="Times,serif" font-size="14.00" fill="#000000">sunlight</text>
</g>
<!-- bs_date -->
<g id="node22" class="node">
<title>bs_date</title>
<ellipse fill="none" stroke="#000000" cx="161.3096" cy="-622.2098" rx="31.3957" ry="18"/>
<text text-anchor="middle" x="161.3096" y="-618.5098" font-family="Times,serif" font-size="14.00" fill="#000000">date</text>
</g>
<!-- bs -->
<g id="node24" class="node">
<title>bs</title>
<polygon fill="#d3d3d3" stroke="#d3d3d3" points="301.1071,-518.3667 236.0859,-500.3667 301.1071,-482.3667 366.1284,-500.3667 301.1071,-518.3667"/>
<text text-anchor="middle" x="301.1071" y="-496.6667" font-family="Times,serif" font-size="14.00" fill="#000000">planted</text>
</g>
<!-- bs&#45;&#45;beds -->
<g id="edge19" class="edge">
<title>bs&#45;&#45;beds</title>
<path fill="none" stroke="#000000" d="M291.5666,-484.9775C274.0918,-456.7902 237.0274,-397.0044 218.3169,-366.8239"/>
<text text-anchor="middle" x="247.9417" y="-429.7007" font-family="Times,serif" font-size="14.00" fill="#000000">m</text>
</g>
<!-- bs&#45;&#45;seeds -->
<g id="edge18" class="edge">
<title>bs&#45;&#45;seeds</title>
<path fill="none" stroke="#000000" d="M335.8939,-507.1429C371.5279,-516.198 426.6533,-530.2061 460.0058,-538.6814"/>
<path fill="none" stroke="transparent" d="M335.4013,-509.0813C371.0353,-518.1364 426.1607,-532.1445 459.5132,-540.6198"/>
<path fill="none" stroke="#000000" d="M334.9087,-511.0197C370.5428,-520.0748 425.6682,-534.0829 459.0207,-542.5582"/>
<text text-anchor="middle" x="392.4573" y="-528.6505" font-family="Times,serif" font-size="14.00" fill="#000000">n</text>
</g>
<!-- bs&#45;&#45;bs_date -->
<g id="edge20" class="edge">
<title>bs&#45;&#45;bs_date</title>
<path fill="none" stroke="#000000" d="M285.3423,-514.1068C258.9216,-537.1343 205.9132,-583.3347 178.5424,-607.1903"/>
</g>
<!-- sf -->
<g id="node25" class="node">
<title>sf</title>
<polygon fill="#d3d3d3" stroke="#d3d3d3" points="518.2999,-763.9812 428.9832,-745.9812 518.2999,-727.9812 607.6167,-745.9812 518.2999,-763.9812"/>
<text text-anchor="middle" x="518.2999" y="-742.2812" font-family="Times,serif" font-size="14.00" fill="#000000">member_of</text>
</g>
<!-- sf&#45;&#45;seeds -->
<g id="edge21" class="edge">
<title>sf&#45;&#45;seeds</title>
<path fill="none" stroke="#000000" d="M513.6412,-728.7026C507.9358,-691.2988 494.6446,-604.1637 488.8681,-566.2934"/>
<path fill="none" stroke="transparent" d="M515.6183,-728.401C509.9129,-690.9972 496.6218,-603.8621 490.8452,-565.9918"/>
<path fill="none" stroke="#000000" d="M517.5955,-728.0994C511.8901,-690.6956 498.5989,-603.5605 492.8224,-565.6903"/>
<text text-anchor="middle" x="496.2318" y="-650.9964" font-family="Times,serif" font-size="14.00" fill="#000000">m</text>
</g>
<!-- sf&#45;&#45;family -->
<g id="edge22" class="edge">
<title>sf&#45;&#45;family</title>
<path fill="none" stroke="#000000" d="M522.2082,-763.4818C529.3111,-795.2868 544.2651,-862.2482 551.4524,-894.4315"/>
<text text-anchor="middle" x="531.8303" y="-832.7566" font-family="Times,serif" font-size="14.00" fill="#000000">1</text>
</g>
<!-- sm -->
<g id="node26" class="node">
<title>sm</title>
<polygon fill="#d3d3d3" stroke="#d3d3d3" points="505.3515,-384.9056 438.9923,-366.9056 505.3515,-348.9056 571.7106,-366.9056 505.3515,-384.9056"/>
<text text-anchor="middle" x="505.3515" y="-363.2056" font-family="Times,serif" font-size="14.00" fill="#000000">do_best</text>
</g>
<!-- sm&#45;&#45;seeds -->
<g id="edge23" class="edge">
<title>sm&#45;&#45;seeds</title>
<path fill="none" stroke="#000000" d="M505.6551,-384.7776C502.3622,-419.2867 495.1119,-495.2682 491.7931,-530.0477"/>
<path fill="none" stroke="transparent" d="M503.6642,-384.5877C500.3712,-419.0967 493.1209,-495.0783 489.8022,-529.8577"/>
<path fill="none" stroke="#000000" d="M501.6732,-384.3977C498.3803,-418.9068 491.1299,-494.8883 487.8112,-529.6677"/>
<text text-anchor="middle" x="489.7332" y="-461.0227" font-family="Times,serif" font-size="14.00" fill="#000000">m</text>
</g>
<!-- sm&#45;&#45;month -->
<g id="edge24" class="edge">
<title>sm&#45;&#45;month</title>
<path fill="none" stroke="#000000" d="M503.7791,-349.0797C500.8145,-315.469 494.4288,-243.0719 491.4432,-209.2241"/>
<text text-anchor="middle" x="492.6112" y="-282.9519" font-family="Times,serif" font-size="14.00" fill="#000000">1</text>
</g>
<!-- bm -->
<g id="node27" class="node">
<title>bm</title>
<polygon fill="#d3d3d3" stroke="#d3d3d3" points="300.8765,-211.2835 240.885,-193.2835 300.8765,-175.2835 360.8679,-193.2835 300.8765,-211.2835"/>
<text text-anchor="middle" x="300.8765" y="-189.5835" font-family="Times,serif" font-size="14.00" fill="#000000">affects</text>
</g>
<!-- bm&#45;&#45;beds -->
<g id="edge25" class="edge">
<title>bm&#45;&#45;beds</title>
<path fill="none" stroke="#000000" d="M293.2445,-209.7764C275.8082,-238.6235 238.3966,-300.5183 219.752,-331.3646"/>
<path fill="none" stroke="transparent" d="M291.5328,-208.7419C274.0966,-237.5889 236.685,-299.4837 218.0404,-330.33"/>
<path fill="none" stroke="#000000" d="M289.8212,-207.7073C272.385,-236.5543 234.9734,-298.4492 216.3287,-329.2955"/>
<text text-anchor="middle" x="247.7866" y="-273.3359" font-family="Times,serif" font-size="14.00" fill="#000000">m</text>
</g>
<!-- bm&#45;&#45;month -->
<g id="edge26" class="edge">
<title>bm&#45;&#45;month</title>
<path fill="none" stroke="#000000" d="M358.8338,-190.61C391.7068,-190.2281 431.5461,-189.7652 458.5935,-189.451"/>
<path fill="none" stroke="transparent" d="M358.857,-192.6098C391.73,-192.2279 431.5693,-191.7651 458.6167,-191.4508"/>
<path fill="none" stroke="#000000" d="M358.8803,-194.6097C391.7532,-194.2278 431.5925,-193.7649 458.64,-193.4507"/>
<text text-anchor="middle" x="403.7369" y="-195.8303" font-family="Times,serif" font-size="14.00" fill="#000000">n</text>
</g>
<!-- bm&#45;&#45;b_sunlight -->
<g id="edge27" class="edge">
<title>bm&#45;&#45;b_sunlight</title>
<path fill="none" stroke="#000000" d="M290.7134,-178.318C271.748,-150.391 231.0555,-90.4701 210.7757,-60.6076"/>
</g>
</g>
</svg>
