<?xml version="1.0" encoding="UTF-8" standalone="no"?><svg xmlns="http://www.w3.org/2000/svg" xmlns:xlink="http://www.w3.org/1999/xlink" contentScriptType="application/ecmascript" contentStyleType="text/css" height="501px" preserveAspectRatio="none" style="width:634px;height:501px;" version="1.1" viewBox="0 0 634 501" width="634px" zoomAndPan="magnify"><defs><filter height="300%" id="f1bsj23pdzkcxt" width="300%" x="-1" y="-1"><feGaussianBlur result="blurOut" stdDeviation="2.0"/><feColorMatrix in="blurOut" result="blurOut2" type="matrix" values="0 0 0 0 0 0 0 0 0 0 0 0 0 0 0 0 0 0 .4 0"/><feOffset dx="4.0" dy="4.0" in="blurOut2" result="blurOut3"/><feBlend in="SourceGraphic" in2="blurOut3" mode="normal"/></filter></defs><g><!--class beds--><rect fill="#F8F8F8" filter="url(#f1bsj23pdzkcxt)" height="86.4141" id="beds" style="stroke: #383838; stroke-width: 1.5;" width="63" x="6" y="38"/><ellipse cx="21" cy="54" fill="#C2C2C2" rx="11" ry="11" style="stroke: #383838; stroke-width: 1.0;"/><path d="M25.1094,60 L17.3906,60 L17.3906,47.6094 L25.1094,47.6094 L25.1094,49.7656 L19.8438,49.7656 L19.8438,52.4375 L24.6094,52.4375 L24.6094,54.5938 L19.8438,54.5938 L19.8438,57.8438 L25.1094,57.8438 L25.1094,60 Z "/><text fill="#000000" font-family="sans-serif" font-size="12" lengthAdjust="spacingAndGlyphs" textLength="31" x="35" y="58.1543">beds</text><line style="stroke: #383838; stroke-width: 1.5;" x1="7" x2="68" y1="70" y2="70"/><ellipse cx="17" cy="81.9023" fill="none" rx="3" ry="3" style="stroke: #545454; stroke-width: 1.0;"/><text fill="#000000" font-family="sans-serif" font-size="11" lengthAdjust="spacingAndGlyphs" text-decoration="underline" textLength="10" x="26" y="84.2104">id</text><line style="stroke: #000000; stroke-width: 1.0;" x1="26" x2="36" y1="86.2104" y2="86.2104"/><text fill="#000000" font-family="sans-serif" font-size="11" lengthAdjust="spacingAndGlyphs" textLength="22" x="40" y="84.2104">[PK]</text><line style="stroke: #383838; stroke-width: 1.0;" x1="7" x2="68" y1="90.8047" y2="90.8047"/><text fill="#000000" font-family="sans-serif" font-size="11" lengthAdjust="spacingAndGlyphs" textLength="32" x="12" y="105.0151">name</text><text fill="#000000" font-family="sans-serif" font-size="11" lengthAdjust="spacingAndGlyphs" textLength="26" x="12" y="117.8198">area</text><!--class seeds--><rect fill="#F8F8F8" filter="url(#f1bsj23pdzkcxt)" height="145.6328" id="seeds" style="stroke: #383838; stroke-width: 1.5;" width="160" x="153.5" y="8"/><ellipse cx="210.25" cy="24" fill="#C2C2C2" rx="11" ry="11" style="stroke: #383838; stroke-width: 1.0;"/><path d="M214.3594,30 L206.6406,30 L206.6406,17.6094 L214.3594,17.6094 L214.3594,19.7656 L209.0938,19.7656 L209.0938,22.4375 L213.8594,22.4375 L213.8594,24.5938 L209.0938,24.5938 L209.0938,27.8438 L214.3594,27.8438 L214.3594,30 Z "/><text fill="#000000" font-family="sans-serif" font-size="12" lengthAdjust="spacingAndGlyphs" textLength="38" x="230.75" y="28.1543">seeds</text><line style="stroke: #383838; stroke-width: 1.5;" x1="154.5" x2="312.5" y1="40" y2="40"/><ellipse cx="164.5" cy="51.9023" fill="none" rx="3" ry="3" style="stroke: #545454; stroke-width: 1.0;"/><text fill="#000000" font-family="sans-serif" font-size="11" lengthAdjust="spacingAndGlyphs" text-decoration="underline" textLength="10" x="173.5" y="54.2104">id</text><line style="stroke: #000000; stroke-width: 1.0;" x1="173.5" x2="183.5" y1="56.2104" y2="56.2104"/><text fill="#000000" font-family="sans-serif" font-size="11" lengthAdjust="spacingAndGlyphs" textLength="22" x="187.5" y="54.2104">[PK]</text><line style="stroke: #383838; stroke-width: 1.0;" x1="154.5" x2="312.5" y1="60.8047" y2="60.8047"/><ellipse cx="164.5" cy="72.707" fill="#A6A6A6" rx="3" ry="3" style="stroke: #545454; stroke-width: 1.0;"/><text fill="#000000" font-family="sans-serif" font-size="11" lengthAdjust="spacingAndGlyphs" textLength="101" x="173.5" y="75.0151">fid (family_id) [FK]</text><ellipse cx="164.5" cy="85.5117" fill="#A6A6A6" rx="3" ry="3" style="stroke: #545454; stroke-width: 1.0;"/><text fill="#000000" font-family="sans-serif" font-size="11" lengthAdjust="spacingAndGlyphs" textLength="134" x="173.5" y="87.8198">do_best (month_id) [FK]</text><line style="stroke: #383838; stroke-width: 1.0;" x1="154.5" x2="312.5" y1="94.4141" y2="94.4141"/><text fill="#000000" font-family="sans-serif" font-size="11" lengthAdjust="spacingAndGlyphs" textLength="32" x="159.5" y="108.6245">name</text><text fill="#000000" font-family="sans-serif" font-size="11" lengthAdjust="spacingAndGlyphs" textLength="45" x="159.5" y="121.4292">sunlight</text><text fill="#000000" font-family="sans-serif" font-size="11" lengthAdjust="spacingAndGlyphs" textLength="32" x="159.5" y="134.2339">water</text><text fill="#000000" font-family="sans-serif" font-size="11" lengthAdjust="spacingAndGlyphs" textLength="26" x="159.5" y="147.0386">area</text><!--class month--><rect fill="#F8F8F8" filter="url(#f1bsj23pdzkcxt)" height="112.0234" id="month" style="stroke: #383838; stroke-width: 1.5;" width="72" x="58.5" y="378"/><ellipse cx="73.5" cy="394" fill="#C2C2C2" rx="11" ry="11" style="stroke: #383838; stroke-width: 1.0;"/><path d="M77.6094,400 L69.8906,400 L69.8906,387.6094 L77.6094,387.6094 L77.6094,389.7656 L72.3438,389.7656 L72.3438,392.4375 L77.1094,392.4375 L77.1094,394.5938 L72.3438,394.5938 L72.3438,397.8438 L77.6094,397.8438 L77.6094,400 Z "/><text fill="#000000" font-family="sans-serif" font-size="12" lengthAdjust="spacingAndGlyphs" textLength="40" x="87.5" y="398.1543">month</text><line style="stroke: #383838; stroke-width: 1.5;" x1="59.5" x2="129.5" y1="410" y2="410"/><ellipse cx="69.5" cy="421.9023" fill="none" rx="3" ry="3" style="stroke: #545454; stroke-width: 1.0;"/><text fill="#000000" font-family="sans-serif" font-size="11" lengthAdjust="spacingAndGlyphs" text-decoration="underline" textLength="10" x="78.5" y="424.2104">id</text><line style="stroke: #000000; stroke-width: 1.0;" x1="78.5" x2="88.5" y1="426.2104" y2="426.2104"/><text fill="#000000" font-family="sans-serif" font-size="11" lengthAdjust="spacingAndGlyphs" textLength="22" x="92.5" y="424.2104">[PK]</text><line style="stroke: #383838; stroke-width: 1.0;" x1="59.5" x2="129.5" y1="430.8047" y2="430.8047"/><text fill="#000000" font-family="sans-serif" font-size="11" lengthAdjust="spacingAndGlyphs" textLength="32" x="64.5" y="445.0151">name</text><text fill="#000000" font-family="sans-serif" font-size="11" lengthAdjust="spacingAndGlyphs" textLength="50" x="64.5" y="457.8198">avg_high</text><text fill="#000000" font-family="sans-serif" font-size="11" lengthAdjust="spacingAndGlyphs" textLength="45" x="64.5" y="470.6245">avg_low</text><text fill="#000000" font-family="sans-serif" font-size="11" lengthAdjust="spacingAndGlyphs" textLength="32" x="64.5" y="483.4292">water</text><!--class family--><rect fill="#F8F8F8" filter="url(#f1bsj23pdzkcxt)" height="86.4141" id="family" style="stroke: #383838; stroke-width: 1.5;" width="67" x="241" y="231"/><ellipse cx="256" cy="247" fill="#C2C2C2" rx="11" ry="11" style="stroke: #383838; stroke-width: 1.0;"/><path d="M260.1094,253 L252.3906,253 L252.3906,240.6094 L260.1094,240.6094 L260.1094,242.7656 L254.8438,242.7656 L254.8438,245.4375 L259.6094,245.4375 L259.6094,247.5938 L254.8438,247.5938 L254.8438,250.8438 L260.1094,250.8438 L260.1094,253 Z "/><text fill="#000000" font-family="sans-serif" font-size="12" lengthAdjust="spacingAndGlyphs" textLength="35" x="270" y="251.1543">family</text><line style="stroke: #383838; stroke-width: 1.5;" x1="242" x2="307" y1="263" y2="263"/><ellipse cx="252" cy="274.9023" fill="none" rx="3" ry="3" style="stroke: #545454; stroke-width: 1.0;"/><text fill="#000000" font-family="sans-serif" font-size="11" lengthAdjust="spacingAndGlyphs" text-decoration="underline" textLength="10" x="261" y="277.2104">id</text><line style="stroke: #000000; stroke-width: 1.0;" x1="261" x2="271" y1="279.2104" y2="279.2104"/><text fill="#000000" font-family="sans-serif" font-size="11" lengthAdjust="spacingAndGlyphs" textLength="22" x="275" y="277.2104">[PK]</text><line style="stroke: #383838; stroke-width: 1.0;" x1="242" x2="307" y1="283.8047" y2="283.8047"/><text fill="#000000" font-family="sans-serif" font-size="11" lengthAdjust="spacingAndGlyphs" textLength="32" x="247" y="298.0151">name</text><text fill="#000000" font-family="sans-serif" font-size="11" lengthAdjust="spacingAndGlyphs" textLength="27" x="247" y="310.8198">alias</text><!--class affects--><rect fill="#F8F8F8" filter="url(#f1bsj23pdzkcxt)" height="107.2188" id="affects" style="stroke: #383838; stroke-width: 1.5;" width="122" x="348.5" y="27.5"/><ellipse cx="384.65" cy="43.5" fill="#717171" rx="11" ry="11" style="stroke: #383838; stroke-width: 1.0;"/><path d="M385.8531,43.6406 Q386.2125,43.7188 386.4859,43.9922 Q386.7594,44.2656 387.15,45.0469 L389.3844,49.5 L386.6969,49.5 L385.1969,46.375 Q385.1344,46.2344 385.025,46 Q384.3688,44.6094 383.4781,44.6094 L382.6969,44.6094 L382.6969,49.5 L380.2594,49.5 L380.2594,37.1094 L383.7906,37.1094 Q386.1813,37.1094 387.2203,37.9531 Q388.2594,38.7969 388.2594,40.7031 Q388.2594,41.9844 387.6422,42.7422 Q387.025,43.5 385.8531,43.6406 Z M382.6969,39.1719 L382.6969,42.5469 L383.8531,42.5469 Q384.8688,42.5469 385.2984,42.1484 Q385.7281,41.75 385.7281,40.8438 Q385.7281,39.9531 385.2984,39.5625 Q384.8688,39.1719 383.8531,39.1719 L382.6969,39.1719 Z "/><text fill="#000000" font-family="sans-serif" font-size="12" lengthAdjust="spacingAndGlyphs" textLength="43" x="403.35" y="47.6543">affects</text><line style="stroke: #383838; stroke-width: 1.5;" x1="349.5" x2="469.5" y1="59.5" y2="59.5"/><ellipse cx="359.5" cy="71.4023" fill="none" rx="3" ry="3" style="stroke: #545454; stroke-width: 1.0;"/><text fill="#000000" font-family="sans-serif" font-size="11" lengthAdjust="spacingAndGlyphs" text-decoration="underline" textLength="10" x="368.5" y="73.7104">id</text><line style="stroke: #000000; stroke-width: 1.0;" x1="368.5" x2="378.5" y1="75.7104" y2="75.7104"/><text fill="#000000" font-family="sans-serif" font-size="11" lengthAdjust="spacingAndGlyphs" textLength="22" x="382.5" y="73.7104">[PK]</text><line style="stroke: #383838; stroke-width: 1.0;" x1="349.5" x2="469.5" y1="80.3047" y2="80.3047"/><text fill="#000000" font-family="sans-serif" font-size="11" lengthAdjust="spacingAndGlyphs" textLength="98" x="354.5" y="94.5151">bid (beds_id) [FK]</text><text fill="#000000" font-family="sans-serif" font-size="11" lengthAdjust="spacingAndGlyphs" textLength="110" x="354.5" y="107.3198">mid (month_id) [FK]</text><line style="stroke: #383838; stroke-width: 1.0;" x1="349.5" x2="469.5" y1="113.9141" y2="113.9141"/><text fill="#000000" font-family="sans-serif" font-size="11" lengthAdjust="spacingAndGlyphs" textLength="45" x="354.5" y="128.1245">sunlight</text><!--class planted--><rect fill="#F8F8F8" filter="url(#f1bsj23pdzkcxt)" height="107.2188" id="planted" style="stroke: #383838; stroke-width: 1.5;" width="117" x="506" y="27.5"/><ellipse cx="537.65" cy="43.5" fill="#717171" rx="11" ry="11" style="stroke: #383838; stroke-width: 1.0;"/><path d="M538.8531,43.6406 Q539.2125,43.7188 539.4859,43.9922 Q539.7594,44.2656 540.15,45.0469 L542.3844,49.5 L539.6969,49.5 L538.1969,46.375 Q538.1344,46.2344 538.025,46 Q537.3688,44.6094 536.4781,44.6094 L535.6969,44.6094 L535.6969,49.5 L533.2594,49.5 L533.2594,37.1094 L536.7906,37.1094 Q539.1813,37.1094 540.2203,37.9531 Q541.2594,38.7969 541.2594,40.7031 Q541.2594,41.9844 540.6422,42.7422 Q540.025,43.5 538.8531,43.6406 Z M535.6969,39.1719 L535.6969,42.5469 L536.8531,42.5469 Q537.8688,42.5469 538.2984,42.1484 Q538.7281,41.75 538.7281,40.8438 Q538.7281,39.9531 538.2984,39.5625 Q537.8688,39.1719 536.8531,39.1719 L535.6969,39.1719 Z "/><text fill="#000000" font-family="sans-serif" font-size="12" lengthAdjust="spacingAndGlyphs" textLength="48" x="555.35" y="47.6543">planted</text><line style="stroke: #383838; stroke-width: 1.5;" x1="507" x2="622" y1="59.5" y2="59.5"/><ellipse cx="517" cy="71.4023" fill="none" rx="3" ry="3" style="stroke: #545454; stroke-width: 1.0;"/><text fill="#000000" font-family="sans-serif" font-size="11" lengthAdjust="spacingAndGlyphs" text-decoration="underline" textLength="10" x="526" y="73.7104">id</text><line style="stroke: #000000; stroke-width: 1.0;" x1="526" x2="536" y1="75.7104" y2="75.7104"/><text fill="#000000" font-family="sans-serif" font-size="11" lengthAdjust="spacingAndGlyphs" textLength="22" x="540" y="73.7104">[PK]</text><line style="stroke: #383838; stroke-width: 1.0;" x1="507" x2="622" y1="80.3047" y2="80.3047"/><text fill="#000000" font-family="sans-serif" font-size="11" lengthAdjust="spacingAndGlyphs" textLength="98" x="512" y="94.5151">bid (beds_id) [FK]</text><text fill="#000000" font-family="sans-serif" font-size="11" lengthAdjust="spacingAndGlyphs" textLength="105" x="512" y="107.3198">sid (seeds_id) [FK]</text><line style="stroke: #383838; stroke-width: 1.0;" x1="507" x2="622" y1="113.9141" y2="113.9141"/><text fill="#000000" font-family="sans-serif" font-size="11" lengthAdjust="spacingAndGlyphs" textLength="25" x="512" y="128.1245">date</text><!--link beds to seeds--><path d="M76.6319,81 C96.646,81 121.8646,81 146.1934,81 " fill="none" id="beds-seeds" style="stroke: #383838; stroke-width: 1.0;"/><line style="stroke: #383838; stroke-width: 1.0;" x1="149.3663" x2="149.3663" y1="77" y2="85"/><line style="stroke: #383838; stroke-width: 1.0;" x1="146.3663" x2="146.3663" y1="77" y2="85"/><line style="stroke: #383838; stroke-width: 1.0;" x1="145.3663" x2="153.3663" y1="81" y2="81"/><line style="stroke: #383838; stroke-width: 1.0;" x1="73.427" x2="73.427" y1="85" y2="77"/><line style="stroke: #383838; stroke-width: 1.0;" x1="76.427" x2="76.427" y1="85" y2="77"/><line style="stroke: #383838; stroke-width: 1.0;" x1="77.427" x2="69.427" y1="81" y2="81"/><text fill="#000000" font-family="sans-serif" font-size="13" lengthAdjust="spacingAndGlyphs" textLength="48" x="87.25" y="74.0669">planted</text><text fill="#000000" font-family="sans-serif" font-size="13" lengthAdjust="spacingAndGlyphs" textLength="13" x="76.9923" y="76.5626">m</text><text fill="#000000" font-family="sans-serif" font-size="13" lengthAdjust="spacingAndGlyphs" textLength="8" x="137.6102" y="77.3985">n</text><!--link beds to month--><path d="M41.261,131.507 C45.3095,179.4953 52.7919,253.5446 64.5,317 C67.7582,334.6588 72.1934,353.5952 76.6537,370.9785 " fill="none" id="beds-month" style="stroke: #383838; stroke-width: 1.0;"/><line style="stroke: #383838; stroke-width: 1.0;" x1="81.2945" x2="73.5514" y1="372.9352" y2="374.9463"/><line style="stroke: #383838; stroke-width: 1.0;" x1="80.5403" x2="72.7972" y1="370.0315" y2="372.0427"/><line style="stroke: #383838; stroke-width: 1.0;" x1="76.4174" x2="78.4285" y1="370.0692" y2="377.8123"/><line style="stroke: #383838; stroke-width: 1.0;" x1="37.0095" x2="44.982" y1="128.645" y2="127.9827"/><line style="stroke: #383838; stroke-width: 1.0;" x1="37.2579" x2="45.2304" y1="131.6347" y2="130.9724"/><line style="stroke: #383838; stroke-width: 1.0;" x1="41.327" x2="40.6646" y1="132.3001" y2="124.3276"/><text fill="#000000" font-family="sans-serif" font-size="13" lengthAdjust="spacingAndGlyphs" textLength="43" x="65.5" y="278.5669">affects</text><text fill="#000000" font-family="sans-serif" font-size="13" lengthAdjust="spacingAndGlyphs" textLength="13" x="27.133" y="144.4727">m</text><text fill="#000000" font-family="sans-serif" font-size="13" lengthAdjust="spacingAndGlyphs" textLength="8" x="67.9823" y="367.1239">n</text><!--link seeds to family--><path d="M249.0588,154.2402 C253.5345,175.3086 258.3443,197.9498 262.5639,217.8129 " fill="none" id="seeds-family" style="stroke: #383838; stroke-width: 1.0;"/><polygon fill="#383838" points="265.3106,230.7424,267.9765,224.0422,262.817,219.0043,260.1511,225.7046,265.3106,230.7424" style="stroke: #383838; stroke-width: 1.0;"/><text fill="#000000" font-family="sans-serif" font-size="13" lengthAdjust="spacingAndGlyphs" textLength="74" x="260.5" y="197.0669">member_of</text><text fill="#000000" font-family="sans-serif" font-size="13" lengthAdjust="spacingAndGlyphs" textLength="13" x="236.8939" y="173.7734">m</text><text fill="#000000" font-family="sans-serif" font-size="13" lengthAdjust="spacingAndGlyphs" textLength="8" x="255.291" y="220.0155">1</text><!--link seeds to month--><path d="M202.1588,154.0055 C191.8663,178.4038 180.5055,205.798 170.5,231 C150.9206,280.3166 129.8538,336.89 114.8776,377.7656 " fill="none" id="seeds-month" style="stroke: #383838; stroke-width: 1.0;"/><text fill="#000000" font-family="sans-serif" font-size="13" lengthAdjust="spacingAndGlyphs" textLength="51" x="171.5" y="278.5669">do_best</text><!--
@startuml
skinparam monochrome true


entity "beds" {
	+ <u>id</u> [PK]
	- -
	name
	area
}

entity "seeds" {
	+ <u>id</u> [PK]
	- -
	+ fid (family_id) [FK]
	+ do_best (month_id) [FK]
	- -
	name
	sunlight
	water
	area
}

entity "month" {
	+ <u>id</u> [PK]
	- -
	name
	avg_high
	avg_low
	water
}

entity "family"{
	+ <u>id</u> [PK]
	- -
	name
	alias
}

entity "affects" <<(R,olive)>>{
	+ <u>id</u> [PK]
	- -
	bid (beds_id) [FK]
	mid (month_id) [FK]
	- -
	sunlight
}


entity "planted" <<(R,olive)>>{
	+ <u>id</u> [PK]
	- -
	bid (beds_id) [FK]
	sid (seeds_id) [FK]
	- -
	date
}


beds "m" ||-|| "n" seeds : planted
beds "m" ||-|| "n" month : affects
seeds "m" - -* "1" family : member_of
seeds - - - month : do_best 

@enduml

PlantUML version 1.2017.15(Mon Jul 03 09:45:34 MST 2017)
(GPL source distribution)
Java Runtime: OpenJDK Runtime Environment
JVM: OpenJDK 64-Bit Server VM
Java Version: 1.7.0_151-b01
Operating System: Linux
OS Version: 4.4.101-1-MANJARO
Default Encoding: UTF-8
Language: en
Country: US
--></g></svg>