<?xml version="1.0" encoding="UTF-8" standalone="no"?><svg xmlns="http://www.w3.org/2000/svg" xmlns:xlink="http://www.w3.org/1999/xlink" contentScriptType="application/ecmascript" contentStyleType="text/css" height="517px" preserveAspectRatio="none" style="width:733px;height:517px;" version="1.1" viewBox="0 0 733 517" width="733px" zoomAndPan="magnify"><defs><filter height="300%" id="f1p402e29yd9gb" width="300%" x="-1" y="-1"><feGaussianBlur result="blurOut" stdDeviation="2.0"/><feColorMatrix in="blurOut" result="blurOut2" type="matrix" values="0 0 0 0 0 0 0 0 0 0 0 0 0 0 0 0 0 0 .4 0"/><feOffset dx="4.0" dy="4.0" in="blurOut2" result="blurOut3"/><feBlend in="SourceGraphic" in2="blurOut3" mode="normal"/></filter></defs><g><!--class beds--><rect fill="#F8F8F8" filter="url(#f1p402e29yd9gb)" height="86.4141" id="beds" style="stroke: #383838; stroke-width: 1.5;" width="63" x="187.5" y="41"/><ellipse cx="202.5" cy="57" fill="#C2C2C2" rx="11" ry="11" style="stroke: #383838; stroke-width: 1.0;"/><path d="M206.6094,63 L198.8906,63 L198.8906,50.6094 L206.6094,50.6094 L206.6094,52.7656 L201.3438,52.7656 L201.3438,55.4375 L206.1094,55.4375 L206.1094,57.5938 L201.3438,57.5938 L201.3438,60.8438 L206.6094,60.8438 L206.6094,63 Z "/><text fill="#000000" font-family="sans-serif" font-size="12" lengthAdjust="spacingAndGlyphs" textLength="31" x="216.5" y="61.1543">beds</text><line style="stroke: #383838; stroke-width: 1.5;" x1="188.5" x2="249.5" y1="73" y2="73"/><ellipse cx="198.5" cy="84.9023" fill="none" rx="3" ry="3" style="stroke: #545454; stroke-width: 1.0;"/><text fill="#000000" font-family="sans-serif" font-size="11" lengthAdjust="spacingAndGlyphs" text-decoration="underline" textLength="10" x="207.5" y="87.2104">id</text><line style="stroke: #000000; stroke-width: 1.0;" x1="207.5" x2="217.5" y1="89.2104" y2="89.2104"/><text fill="#000000" font-family="sans-serif" font-size="11" lengthAdjust="spacingAndGlyphs" textLength="22" x="221.5" y="87.2104">[PK]</text><line style="stroke: #383838; stroke-width: 1.0;" x1="188.5" x2="249.5" y1="93.8047" y2="93.8047"/><text fill="#000000" font-family="sans-serif" font-size="11" lengthAdjust="spacingAndGlyphs" textLength="32" x="193.5" y="108.0151">name</text><text fill="#000000" font-family="sans-serif" font-size="11" lengthAdjust="spacingAndGlyphs" textLength="26" x="193.5" y="120.8198">area</text><!--class seeds--><rect fill="#F8F8F8" filter="url(#f1p402e29yd9gb)" height="145.6328" id="seeds" style="stroke: #383838; stroke-width: 1.5;" width="160" x="470" y="12"/><ellipse cx="526.75" cy="28" fill="#C2C2C2" rx="11" ry="11" style="stroke: #383838; stroke-width: 1.0;"/><path d="M530.8594,34 L523.1406,34 L523.1406,21.6094 L530.8594,21.6094 L530.8594,23.7656 L525.5938,23.7656 L525.5938,26.4375 L530.3594,26.4375 L530.3594,28.5938 L525.5938,28.5938 L525.5938,31.8438 L530.8594,31.8438 L530.8594,34 Z "/><text fill="#000000" font-family="sans-serif" font-size="12" lengthAdjust="spacingAndGlyphs" textLength="38" x="547.25" y="32.1543">seeds</text><line style="stroke: #383838; stroke-width: 1.5;" x1="471" x2="629" y1="44" y2="44"/><ellipse cx="481" cy="55.9023" fill="none" rx="3" ry="3" style="stroke: #545454; stroke-width: 1.0;"/><text fill="#000000" font-family="sans-serif" font-size="11" lengthAdjust="spacingAndGlyphs" text-decoration="underline" textLength="10" x="490" y="58.2104">id</text><line style="stroke: #000000; stroke-width: 1.0;" x1="490" x2="500" y1="60.2104" y2="60.2104"/><text fill="#000000" font-family="sans-serif" font-size="11" lengthAdjust="spacingAndGlyphs" textLength="22" x="504" y="58.2104">[PK]</text><line style="stroke: #383838; stroke-width: 1.0;" x1="471" x2="629" y1="64.8047" y2="64.8047"/><ellipse cx="481" cy="76.707" fill="#A6A6A6" rx="3" ry="3" style="stroke: #545454; stroke-width: 1.0;"/><text fill="#000000" font-family="sans-serif" font-size="11" lengthAdjust="spacingAndGlyphs" textLength="101" x="490" y="79.0151">fid (family_id) [FK]</text><ellipse cx="481" cy="89.5117" fill="#A6A6A6" rx="3" ry="3" style="stroke: #545454; stroke-width: 1.0;"/><text fill="#000000" font-family="sans-serif" font-size="11" lengthAdjust="spacingAndGlyphs" textLength="134" x="490" y="91.8198">do_best (month_id) [FK]</text><line style="stroke: #383838; stroke-width: 1.0;" x1="471" x2="629" y1="98.4141" y2="98.4141"/><text fill="#000000" font-family="sans-serif" font-size="11" lengthAdjust="spacingAndGlyphs" textLength="32" x="476" y="112.6245">name</text><text fill="#000000" font-family="sans-serif" font-size="11" lengthAdjust="spacingAndGlyphs" textLength="45" x="476" y="125.4292">sunlight</text><text fill="#000000" font-family="sans-serif" font-size="11" lengthAdjust="spacingAndGlyphs" textLength="32" x="476" y="138.2339">water</text><text fill="#000000" font-family="sans-serif" font-size="11" lengthAdjust="spacingAndGlyphs" textLength="26" x="476" y="151.0386">area</text><!--class month--><rect fill="#F8F8F8" filter="url(#f1p402e29yd9gb)" height="112.0234" id="month" style="stroke: #383838; stroke-width: 1.5;" width="72" x="228" y="394"/><ellipse cx="243" cy="410" fill="#C2C2C2" rx="11" ry="11" style="stroke: #383838; stroke-width: 1.0;"/><path d="M247.1094,416 L239.3906,416 L239.3906,403.6094 L247.1094,403.6094 L247.1094,405.7656 L241.8438,405.7656 L241.8438,408.4375 L246.6094,408.4375 L246.6094,410.5938 L241.8438,410.5938 L241.8438,413.8438 L247.1094,413.8438 L247.1094,416 Z "/><text fill="#000000" font-family="sans-serif" font-size="12" lengthAdjust="spacingAndGlyphs" textLength="40" x="257" y="414.1543">month</text><line style="stroke: #383838; stroke-width: 1.5;" x1="229" x2="299" y1="426" y2="426"/><ellipse cx="239" cy="437.9023" fill="none" rx="3" ry="3" style="stroke: #545454; stroke-width: 1.0;"/><text fill="#000000" font-family="sans-serif" font-size="11" lengthAdjust="spacingAndGlyphs" text-decoration="underline" textLength="10" x="248" y="440.2104">id</text><line style="stroke: #000000; stroke-width: 1.0;" x1="248" x2="258" y1="442.2104" y2="442.2104"/><text fill="#000000" font-family="sans-serif" font-size="11" lengthAdjust="spacingAndGlyphs" textLength="22" x="262" y="440.2104">[PK]</text><line style="stroke: #383838; stroke-width: 1.0;" x1="229" x2="299" y1="446.8047" y2="446.8047"/><text fill="#000000" font-family="sans-serif" font-size="11" lengthAdjust="spacingAndGlyphs" textLength="32" x="234" y="461.0151">name</text><text fill="#000000" font-family="sans-serif" font-size="11" lengthAdjust="spacingAndGlyphs" textLength="50" x="234" y="473.8198">avg_high</text><text fill="#000000" font-family="sans-serif" font-size="11" lengthAdjust="spacingAndGlyphs" textLength="45" x="234" y="486.6245">avg_low</text><text fill="#000000" font-family="sans-serif" font-size="11" lengthAdjust="spacingAndGlyphs" textLength="32" x="234" y="499.4292">water</text><!--class family--><rect fill="#F8F8F8" filter="url(#f1p402e29yd9gb)" height="86.4141" id="family" style="stroke: #383838; stroke-width: 1.5;" width="67" x="529.5" y="240"/><ellipse cx="544.5" cy="256" fill="#C2C2C2" rx="11" ry="11" style="stroke: #383838; stroke-width: 1.0;"/><path d="M548.6094,262 L540.8906,262 L540.8906,249.6094 L548.6094,249.6094 L548.6094,251.7656 L543.3438,251.7656 L543.3438,254.4375 L548.1094,254.4375 L548.1094,256.5938 L543.3438,256.5938 L543.3438,259.8438 L548.6094,259.8438 L548.6094,262 Z "/><text fill="#000000" font-family="sans-serif" font-size="12" lengthAdjust="spacingAndGlyphs" textLength="35" x="558.5" y="260.1543">family</text><line style="stroke: #383838; stroke-width: 1.5;" x1="530.5" x2="595.5" y1="272" y2="272"/><ellipse cx="540.5" cy="283.9023" fill="none" rx="3" ry="3" style="stroke: #545454; stroke-width: 1.0;"/><text fill="#000000" font-family="sans-serif" font-size="11" lengthAdjust="spacingAndGlyphs" text-decoration="underline" textLength="10" x="549.5" y="286.2104">id</text><line style="stroke: #000000; stroke-width: 1.0;" x1="549.5" x2="559.5" y1="288.2104" y2="288.2104"/><text fill="#000000" font-family="sans-serif" font-size="11" lengthAdjust="spacingAndGlyphs" textLength="22" x="563.5" y="286.2104">[PK]</text><line style="stroke: #383838; stroke-width: 1.0;" x1="530.5" x2="595.5" y1="292.8047" y2="292.8047"/><text fill="#000000" font-family="sans-serif" font-size="11" lengthAdjust="spacingAndGlyphs" textLength="32" x="535.5" y="307.0151">name</text><text fill="#000000" font-family="sans-serif" font-size="11" lengthAdjust="spacingAndGlyphs" textLength="27" x="535.5" y="319.8198">alias</text><!--class affects--><rect fill="#F8F8F8" filter="url(#f1p402e29yd9gb)" height="107.2188" id="affects" style="stroke: #383838; stroke-width: 1.5;" width="122" x="14" y="31.5"/><ellipse cx="50.15" cy="47.5" fill="#717171" rx="11" ry="11" style="stroke: #383838; stroke-width: 1.0;"/><path d="M51.3531,47.6406 Q51.7125,47.7188 51.9859,47.9922 Q52.2594,48.2656 52.65,49.0469 L54.8844,53.5 L52.1969,53.5 L50.6969,50.375 Q50.6344,50.2344 50.525,50 Q49.8688,48.6094 48.9781,48.6094 L48.1969,48.6094 L48.1969,53.5 L45.7594,53.5 L45.7594,41.1094 L49.2906,41.1094 Q51.6813,41.1094 52.7203,41.9531 Q53.7594,42.7969 53.7594,44.7031 Q53.7594,45.9844 53.1422,46.7422 Q52.525,47.5 51.3531,47.6406 Z M48.1969,43.1719 L48.1969,46.5469 L49.3531,46.5469 Q50.3688,46.5469 50.7984,46.1484 Q51.2281,45.75 51.2281,44.8438 Q51.2281,43.9531 50.7984,43.5625 Q50.3688,43.1719 49.3531,43.1719 L48.1969,43.1719 Z "/><text fill="#000000" font-family="sans-serif" font-size="12" lengthAdjust="spacingAndGlyphs" textLength="43" x="68.85" y="51.6543">affects</text><line style="stroke: #383838; stroke-width: 1.5;" x1="15" x2="135" y1="63.5" y2="63.5"/><ellipse cx="25" cy="75.4023" fill="none" rx="3" ry="3" style="stroke: #545454; stroke-width: 1.0;"/><text fill="#000000" font-family="sans-serif" font-size="11" lengthAdjust="spacingAndGlyphs" text-decoration="underline" textLength="10" x="34" y="77.7104">id</text><line style="stroke: #000000; stroke-width: 1.0;" x1="34" x2="44" y1="79.7104" y2="79.7104"/><text fill="#000000" font-family="sans-serif" font-size="11" lengthAdjust="spacingAndGlyphs" textLength="22" x="48" y="77.7104">[PK]</text><line style="stroke: #383838; stroke-width: 1.0;" x1="15" x2="135" y1="84.3047" y2="84.3047"/><text fill="#000000" font-family="sans-serif" font-size="11" lengthAdjust="spacingAndGlyphs" textLength="98" x="20" y="98.5151">bid (beds_id) [FK]</text><text fill="#000000" font-family="sans-serif" font-size="11" lengthAdjust="spacingAndGlyphs" textLength="110" x="20" y="111.3198">mid (month_id) [FK]</text><line style="stroke: #383838; stroke-width: 1.0;" x1="15" x2="135" y1="117.9141" y2="117.9141"/><text fill="#000000" font-family="sans-serif" font-size="11" lengthAdjust="spacingAndGlyphs" textLength="45" x="20" y="132.1245">sunlight</text><!--class planted--><rect fill="#F8F8F8" filter="url(#f1p402e29yd9gb)" height="107.2188" id="planted" style="stroke: #383838; stroke-width: 1.5;" width="117" x="301.5" y="31.5"/><ellipse cx="333.15" cy="47.5" fill="#717171" rx="11" ry="11" style="stroke: #383838; stroke-width: 1.0;"/><path d="M334.3531,47.6406 Q334.7125,47.7188 334.9859,47.9922 Q335.2594,48.2656 335.65,49.0469 L337.8844,53.5 L335.1969,53.5 L333.6969,50.375 Q333.6344,50.2344 333.525,50 Q332.8688,48.6094 331.9781,48.6094 L331.1969,48.6094 L331.1969,53.5 L328.7594,53.5 L328.7594,41.1094 L332.2906,41.1094 Q334.6813,41.1094 335.7203,41.9531 Q336.7594,42.7969 336.7594,44.7031 Q336.7594,45.9844 336.1422,46.7422 Q335.525,47.5 334.3531,47.6406 Z M331.1969,43.1719 L331.1969,46.5469 L332.3531,46.5469 Q333.3688,46.5469 333.7984,46.1484 Q334.2281,45.75 334.2281,44.8438 Q334.2281,43.9531 333.7984,43.5625 Q333.3688,43.1719 332.3531,43.1719 L331.1969,43.1719 Z "/><text fill="#000000" font-family="sans-serif" font-size="12" lengthAdjust="spacingAndGlyphs" textLength="48" x="350.85" y="51.6543">planted</text><line style="stroke: #383838; stroke-width: 1.5;" x1="302.5" x2="417.5" y1="63.5" y2="63.5"/><ellipse cx="312.5" cy="75.4023" fill="none" rx="3" ry="3" style="stroke: #545454; stroke-width: 1.0;"/><text fill="#000000" font-family="sans-serif" font-size="11" lengthAdjust="spacingAndGlyphs" text-decoration="underline" textLength="10" x="321.5" y="77.7104">id</text><line style="stroke: #000000; stroke-width: 1.0;" x1="321.5" x2="331.5" y1="79.7104" y2="79.7104"/><text fill="#000000" font-family="sans-serif" font-size="11" lengthAdjust="spacingAndGlyphs" textLength="22" x="335.5" y="77.7104">[PK]</text><line style="stroke: #383838; stroke-width: 1.0;" x1="302.5" x2="417.5" y1="84.3047" y2="84.3047"/><text fill="#000000" font-family="sans-serif" font-size="11" lengthAdjust="spacingAndGlyphs" textLength="98" x="307.5" y="98.5151">bid (beds_id) [FK]</text><text fill="#000000" font-family="sans-serif" font-size="11" lengthAdjust="spacingAndGlyphs" textLength="105" x="307.5" y="111.3198">sid (seeds_id) [FK]</text><line style="stroke: #383838; stroke-width: 1.0;" x1="302.5" x2="417.5" y1="117.9141" y2="117.9141"/><text fill="#000000" font-family="sans-serif" font-size="11" lengthAdjust="spacingAndGlyphs" textLength="25" x="307.5" y="132.1245">date</text><!--link seeds to family--><path d="M630,74.5 C721.8639,74.5 691.7817,274.8529 602.1472,282.2878 " fill="none" id="seeds-family" style="stroke: #383838; stroke-width: 1.0; stroke-dasharray: 1.0,3.0;"/><polygon fill="#383838" points="597,282.5,606.1573,286.1255,601.9957,282.2939,605.8274,278.1323,597,282.5" style="stroke: #383838; stroke-width: 1.0;"/><!--link seeds to family--><path d="M554.9333,159.0171 C556.3113,180.1121 557.7893,202.7364 559.0988,222.7819 " fill="none" id="seeds-family" style="stroke: #383838; stroke-width: 1.0;"/><polygon fill="#383838" points="559.9536,235.8674,563.5539,229.6194,559.1712,223.8929,555.5709,230.141,559.9536,235.8674" style="stroke: #383838; stroke-width: 1.0;"/><text fill="#000000" font-family="sans-serif" font-size="13" lengthAdjust="spacingAndGlyphs" textLength="74" x="559" y="202.0669">member_of</text><text fill="#000000" font-family="sans-serif" font-size="13" lengthAdjust="spacingAndGlyphs" textLength="13" x="541.8085" y="177.5998">m</text><text fill="#000000" font-family="sans-serif" font-size="13" lengthAdjust="spacingAndGlyphs" textLength="8" x="551.4361" y="228.9119">1</text><!--link seeds to month--><path d="M470,86.5 C435.7684,86.5 467.5871,134.1917 444,159 C420.1131,184.1236 395.9211,163.909 372,189 C294.1851,270.6206 410.8087,431.3767 305.1987,436.3804 " fill="none" id="seeds-month" style="stroke: #383838; stroke-width: 1.0; stroke-dasharray: 1.0,3.0;"/><polygon fill="#383838" points="300,436.5,309.0897,440.2917,304.9987,436.3849,308.9055,432.2938,300,436.5" style="stroke: #383838; stroke-width: 1.0;"/><!--link seeds to month--><path d="M500.1723,159.2129 C484.2918,183.6197 466.7582,210.8589 451,236 C416.7939,290.5737 418.4832,311.5901 376,360 C356.1348,382.6366 330.0272,403.8692 308.0161,419.9679 " fill="none" id="seeds-month" style="stroke: #383838; stroke-width: 1.0;"/><text fill="#000000" font-family="sans-serif" font-size="13" lengthAdjust="spacingAndGlyphs" textLength="51" x="452" y="287.0669">do_best</text><!--link affects to beds--><path d="M136,93.5 C159.5346,93.5 164.4654,83.5 188,83.5 " fill="none" id="affects-beds" style="stroke: #383838; stroke-width: 1.0; stroke-dasharray: 1.0,3.0;"/><polygon fill="#383838" points="188,83.5,179,79.5,183,83.5,179,87.5,188,83.5" style="stroke: #383838; stroke-width: 1.0;"/><!--link beds to affects--><path d="M179.449,83.5 C170.728,83.5 161.2039,83.5 151.5702,83.5 " fill="none" id="beds-affects" style="stroke: #383838; stroke-width: 1.0;"/><line style="stroke: #383838; stroke-width: 1.0;" x1="145.5203" x2="145.5203" y1="87.5" y2="79.5"/><line style="stroke: #383838; stroke-width: 1.0;" x1="148.5203" x2="148.5203" y1="87.5" y2="79.5"/><line style="stroke: #383838; stroke-width: 1.0;" x1="149.5203" x2="141.5203" y1="83.5" y2="83.5"/><text fill="#000000" font-family="sans-serif" font-size="13" lengthAdjust="spacingAndGlyphs" textLength="13" x="166.449" y="80.5669">m</text><!--link affects to month--><path d="M136,105.5 C165.0787,105.5 188.1258,332.3085 197,360 C207.6271,393.1614 192.9566,432.2957 222.8149,436.1848 " fill="none" id="affects-month" style="stroke: #383838; stroke-width: 1.0; stroke-dasharray: 1.0,3.0;"/><polygon fill="#383838" points="228,436.5,219.2593,431.9612,223.0092,436.1966,218.7738,439.9465,228,436.5" style="stroke: #383838; stroke-width: 1.0;"/><!--link affects to month--><path d="M139.5209,139.585 C168.2266,164.5669 195.7203,188.5483 196,189 C232.8779,248.5422 249.8818,327.6287 257.6427,382.9812 " fill="none" id="affects-month" style="stroke: #383838; stroke-width: 1.0;"/><line style="stroke: #383838; stroke-width: 1.0;" x1="262.0142" x2="254.0869" y1="385.4481" y2="386.5242"/><line style="stroke: #383838; stroke-width: 1.0;" x1="261.6107" x2="253.6834" y1="382.4754" y2="383.5515"/><line style="stroke: #383838; stroke-width: 1.0;" x1="257.5125" x2="258.5886" y1="382.0225" y2="389.9498"/><text fill="#000000" font-family="sans-serif" font-size="13" lengthAdjust="spacingAndGlyphs" textLength="8" x="250.0151" y="382.9037">n</text><!--link planted to beds--><path d="M302,93.5 C278.9017,93.5 274.0983,83.5 251,83.5 " fill="none" id="planted-beds" style="stroke: #383838; stroke-width: 1.0; stroke-dasharray: 1.0,3.0;"/><polygon fill="#383838" points="251,83.5,260,87.5,256,83.5,260,79.5,251,83.5" style="stroke: #383838; stroke-width: 1.0;"/><!--link beds to planted--><path d="M258.6516,83.5 C266.4381,83.5 274.8499,83.5 283.3821,83.5 " fill="none" id="beds-planted" style="stroke: #383838; stroke-width: 1.0;"/><line style="stroke: #383838; stroke-width: 1.0;" x1="289.4233" x2="289.4233" y1="79.5" y2="87.5"/><line style="stroke: #383838; stroke-width: 1.0;" x1="286.4233" x2="286.4233" y1="79.5" y2="87.5"/><line style="stroke: #383838; stroke-width: 1.0;" x1="285.4233" x2="293.4233" y1="83.5" y2="83.5"/><text fill="#000000" font-family="sans-serif" font-size="13" lengthAdjust="spacingAndGlyphs" textLength="13" x="258.6516" y="80.5669">m</text><!--link planted to seeds--><path d="M419,105.5 C451.0555,105.5 437.9445,54.5 470,54.5 " fill="none" id="planted-seeds" style="stroke: #383838; stroke-width: 1.0; stroke-dasharray: 1.0,3.0;"/><polygon fill="#383838" points="470,54.5,461,50.5,465,54.5,461,58.5,470,54.5" style="stroke: #383838; stroke-width: 1.0;"/><!--link planted to seeds--><path d="M399.8302,83.5 C415.0713,83.5 433.2117,83.5 451.5245,83.5 " fill="none" id="planted-seeds" style="stroke: #383838; stroke-width: 1.0;"/><line style="stroke: #383838; stroke-width: 1.0;" x1="457.6987" x2="457.6987" y1="79.5" y2="87.5"/><line style="stroke: #383838; stroke-width: 1.0;" x1="454.6987" x2="454.6987" y1="79.5" y2="87.5"/><line style="stroke: #383838; stroke-width: 1.0;" x1="453.6987" x2="461.6987" y1="83.5" y2="83.5"/><text fill="#000000" font-family="sans-serif" font-size="13" lengthAdjust="spacingAndGlyphs" textLength="8" x="453.6987" y="80.5669">n</text><!--
@startuml
skinparam monochrome true



entity "beds" {
	+ <u>id</u> [PK]
	- -
	name
	area
}

entity "seeds" {
	+ <u>id</u> [PK]
	- -
	+ fid (family_id) [FK]
	+ do_best (month_id) [FK]
	- -
	name
	sunlight
	water
	area
}

entity "month" {
	+ <u>id</u> [PK]
	- -
	name
	avg_high
	avg_low
	water
}

entity "family"{
	+ <u>id</u> [PK]
	- -
	name
	alias
}

entity "affects" <<(R,olive)>>{
	+ <u>id</u> [PK]
	- -
	bid (beds_id) [FK]
	mid (month_id) [FK]
	- -
	sunlight
}


entity "planted" <<(R,olive)>>{
	+ <u>id</u> [PK]
	- -
	bid (beds_id) [FK]
	sid (seeds_id) [FK]
	- -
	date
}

seeds::fid -[dotted]-> family::id
seeds::do_best -[dotted]-> month::id

affects::bid -[dotted]-> beds::id
affects::mid -[dotted]->month::id

planted::bid -[dotted]-> beds::id
planted::sid -[dotted]-> seeds::id


beds "m" ||- planted
planted  -|| "n" seeds

beds "m" ||- affects
affects  -|| "n" month

seeds "m" - -* "1" family : member_of
seeds - - - month : do_best 


@enduml

PlantUML version 1.2017.15(Mon Jul 03 09:45:34 MST 2017)
(GPL source distribution)
Java Runtime: OpenJDK Runtime Environment
JVM: OpenJDK 64-Bit Server VM
Java Version: 1.7.0_151-b01
Operating System: Linux
OS Version: 4.4.103-1-MANJARO
Default Encoding: UTF-8
Language: en
Country: US
--></g></svg>